HIERARCHY
ROOT Hips
{
  OFFSET 5.80788e-005 67.184 3.4734
  CHANNELS 6 Xposition Yposition Zposition Zrotation Xrotation Yrotation
  JOINT Chest
  {
    OFFSET 0 8.7983 -4.7612
    CHANNELS 3 Zrotation Xrotation Yrotation
    JOINT Chest2
    {
      OFFSET 0 8.0291 0.4195
      CHANNELS 3 Zrotation Xrotation Yrotation
      JOINT Chest3
      {
        OFFSET 0 9.9351 -2.2114
        CHANNELS 3 Zrotation Xrotation Yrotation
        JOINT Neck
        {
          OFFSET 0 22.3885 -0.4656
          CHANNELS 3 Zrotation Xrotation Yrotation
          JOINT Head
          {
            OFFSET -0.0001 12.643 3.4389
            CHANNELS 3 Zrotation Xrotation Yrotation
            End Site
            {
              OFFSET 0.0001 17.6655 0.5274
            }
          }
        }
        JOINT LeftCollar
        {
          OFFSET 2.2603 21.606 7.4023
          CHANNELS 3 Zrotation Xrotation Yrotation
          JOINT LeftShoulder
          {
            OFFSET 13.5163 -1.1332 -5.0146
            CHANNELS 3 Zrotation Xrotation Yrotation
            JOINT LeftElbow
            {
              OFFSET -0.0995 -28.05 -0.2431
              CHANNELS 3 Zrotation Xrotation Yrotation
              JOINT LeftWrist
              {
                OFFSET 0.0679 -23.3996 -0.1402
                CHANNELS 3 Zrotation Xrotation Yrotation
                JOINT LeftFinger1
                {
                  OFFSET 0.7932 -9.069 2.5189
                  CHANNELS 3 Zrotation Xrotation Yrotation
                  JOINT LeftFinger11
                  {
                    OFFSET -0.8272 -3.3923 0.5977
                    CHANNELS 3 Zrotation Xrotation Yrotation
                    JOINT LeftFinger12
                    {
                      OFFSET -0.5649 -2.3158 0.4082
                      CHANNELS 3 Zrotation Xrotation Yrotation
                      End Site
                      {
                        OFFSET -0.4919 -1.6479 0.2673
                      }
                    }
                  }
                }
                JOINT LeftFinger2
                {
                  OFFSET 0.9159 -9.2044 0.2193
                  CHANNELS 3 Zrotation Xrotation Yrotation
                  JOINT LeftFinger21
                  {
                    OFFSET 0.0117 -4.1944 -0.0248
                    CHANNELS 3 Zrotation Xrotation Yrotation
                    JOINT LeftFinger22
                    {
                      OFFSET 0.0071 -2.3249 -0.0142
                      CHANNELS 3 Zrotation Xrotation Yrotation
                      End Site
                      {
                        OFFSET -0.1475 -2.0882 0.0028
                      }
                    }
                  }
                }
                JOINT LeftFinger3
                {
                  OFFSET 0.6113 -8.7231 -2.0637
                  CHANNELS 3 Zrotation Xrotation Yrotation
                  JOINT LeftFinger31
                  {
                    OFFSET -0.1927 -3.8059 -0.2383
                    CHANNELS 3 Zrotation Xrotation Yrotation
                    JOINT LeftFinger32
                    {
                      OFFSET -0.1091 -2.1688 -0.1362
                      CHANNELS 3 Zrotation Xrotation Yrotation
                      End Site
                      {
                        OFFSET -0.2358 -1.9176 -0.0906
                      }
                    }
                  }
                }
                JOINT LeftFinger4
                {
                  OFFSET -0.6151 -8.0947 -3.5641
                  CHANNELS 3 Zrotation Xrotation Yrotation
                  JOINT LeftFinger41
                  {
                    OFFSET -0.4882 -2.341 -0.6462
                    CHANNELS 3 Zrotation Xrotation Yrotation
                    JOINT LeftFinger42
                    {
                      OFFSET -0.3575 -1.7167 -0.4742
                      CHANNELS 3 Zrotation Xrotation Yrotation
                      End Site
                      {
                        OFFSET -0.4187 -1.5237 -0.3496
                      }
                    }
                  }
                }
                JOINT LeftFinger0
                {
                  OFFSET -1.42 -1.8761 1.4223
                  CHANNELS 3 Zrotation Xrotation Yrotation
                  JOINT LeftFinger01
                  {
                    OFFSET -1.1471 -3.4929 2.6334
                    CHANNELS 3 Zrotation Xrotation Yrotation
                    JOINT LeftFinger02
                    {
                      OFFSET -0.823 -2.3 1.6571
                      CHANNELS 3 Zrotation Xrotation Yrotation
                      End Site
                      {
                        OFFSET -0.5822 -1.6914 1.1582
                      }
                    }
                  }
                }
              }
            }
          }
        }
        JOINT RightCollar
        {
          OFFSET -2.2603 21.606 7.4023
          CHANNELS 3 Zrotation Xrotation Yrotation
          JOINT RightShoulder
          {
            OFFSET -13.5187 -1.1334 -5.0155
            CHANNELS 3 Zrotation Xrotation Yrotation
            JOINT RightElbow
            {
              OFFSET 0.0994 -28.0499 -0.2431
              CHANNELS 3 Zrotation Xrotation Yrotation
              JOINT RightWrist
              {
                OFFSET -0.0679 -23.3996 -0.1402
                CHANNELS 3 Zrotation Xrotation Yrotation
                JOINT RightFinger1
                {
                  OFFSET -0.7932 -9.0691 2.5189
                  CHANNELS 3 Zrotation Xrotation Yrotation
                  JOINT RightFinger11
                  {
                    OFFSET 0.8272 -3.3923 0.5977
                    CHANNELS 3 Zrotation Xrotation Yrotation
                    JOINT RightFinger12
                    {
                      OFFSET 0.565 -2.3158 0.4082
                      CHANNELS 3 Zrotation Xrotation Yrotation
                      End Site
                      {
                        OFFSET 0.4919 -1.6479 0.2673
                      }
                    }
                  }
                }
                JOINT RightFinger2
                {
                  OFFSET -0.916 -9.2044 0.2193
                  CHANNELS 3 Zrotation Xrotation Yrotation
                  JOINT RightFinger21
                  {
                    OFFSET -0.0117 -4.1944 -0.0248
                    CHANNELS 3 Zrotation Xrotation Yrotation
                    JOINT RightFinger22
                    {
                      OFFSET -0.0071 -2.3249 -0.0142
                      CHANNELS 3 Zrotation Xrotation Yrotation
                      End Site
                      {
                        OFFSET 0.1475 -2.0882 0.0028
                      }
                    }
                  }
                }
                JOINT RightFinger3
                {
                  OFFSET -0.6113 -8.7231 -2.0637
                  CHANNELS 3 Zrotation Xrotation Yrotation
                  JOINT RightFinger31
                  {
                    OFFSET 0.1927 -3.8059 -0.2383
                    CHANNELS 3 Zrotation Xrotation Yrotation
                    JOINT RightFinger32
                    {
                      OFFSET 0.1091 -2.1688 -0.1362
                      CHANNELS 3 Zrotation Xrotation Yrotation
                      End Site
                      {
                        OFFSET 0.2358 -1.9176 -0.0906
                      }
                    }
                  }
                }
                JOINT RightFinger4
                {
                  OFFSET 0.6151 -8.0947 -3.564
                  CHANNELS 3 Zrotation Xrotation Yrotation
                  JOINT RightFinger41
                  {
                    OFFSET 0.4882 -2.341 -0.6462
                    CHANNELS 3 Zrotation Xrotation Yrotation
                    JOINT RightFinger42
                    {
                      OFFSET 0.3574 -1.7166 -0.4742
                      CHANNELS 3 Zrotation Xrotation Yrotation
                      End Site
                      {
                        OFFSET 0.4187 -1.5237 -0.3496
                      }
                    }
                  }
                }
                JOINT RightFinger0
                {
                  OFFSET 1.4199 -1.8761 1.4221
                  CHANNELS 3 Zrotation Xrotation Yrotation
                  JOINT RightFinger01
                  {
                    OFFSET 1.1472 -3.4929 2.6336
                    CHANNELS 3 Zrotation Xrotation Yrotation
                    JOINT RightFinger02
                    {
                      OFFSET 0.8229 -2.3 1.6571
                      CHANNELS 3 Zrotation Xrotation Yrotation
                      End Site
                      {
                        OFFSET 0.5822 -1.6914 1.1582
                      }
                    }
                  }
                }
              }
            }
          }
        }
      }
    }
  }
  JOINT RightHip
  {
    OFFSET -9.412 3.9771 -0.7758
    CHANNELS 3 Zrotation Xrotation Yrotation
    JOINT RightKnee
    {
      OFFSET -0.7531 -40.938 0
      CHANNELS 3 Zrotation Xrotation Yrotation
      JOINT RightAnkle
      {
        OFFSET 0 -40.1986 0
        CHANNELS 3 Zrotation Xrotation Yrotation
        JOINT RightToe
        {
          OFFSET 0 -4.4182 9.239
          CHANNELS 3 Zrotation Xrotation Yrotation
          End Site
          {
            OFFSET 0 0 6.1981
          }
        }
      }
    }
  }
  JOINT LeftHip
  {
    OFFSET 9.4119 3.9773 -0.7758
    CHANNELS 3 Zrotation Xrotation Yrotation
    JOINT LeftKnee
    {
      OFFSET 0.7532 -40.9383 0
      CHANNELS 3 Zrotation Xrotation Yrotation
      JOINT LeftAnkle
      {
        OFFSET 0 -40.1986 0
        CHANNELS 3 Zrotation Xrotation Yrotation
        JOINT LeftToe
        {
          OFFSET 0 -4.4182 9.239
          CHANNELS 3 Zrotation Xrotation Yrotation
          End Site
          {
            OFFSET 0 0 6.1981
          }
        }
      }
    }
  }
}
MOTION
Frames:	6
Frame Time:	0.0333333
5.80788e-005 67.184 3.4734 0 0 -0 0 0 -0 0 0 -0 0 0 -0 0 0 -0 0 0 -0 0 0 -12.5014 88.1196 14.2451 10.6914 -0.00160068 -0.00239207 0.000740045 -8.4365e-005 7.00714e-005 -9.52055e-007 9.93923e-017 -1.98785e-016 -1.59028e-015 9.93923e-017 -5.96354e-016 -1.59028e-015 -9.93923e-017 -5.96354e-016 -1.59028e-015 9.93923e-017 -1.98785e-016 -1.59028e-015 -0.0128176 0.00232552 8.52707e-005 9.93923e-017 5.96354e-016 -0 9.93923e-017 -1.98785e-016 -1.59028e-015 -0.0160551 0.00299681 0.000857156 -2.48481e-016 0 3.18055e-015 9.93923e-017 -1.98785e-016 -1.59028e-015 -0.0125865 0.0031206 0.00282719 0 1.98785e-016 -0 9.93923e-017 -1.98785e-016 -1.59028e-015 9.93923e-017 -5.96354e-016 -1.59028e-015 -9.93923e-017 -5.96354e-016 -1.59028e-015 -0.865644 0.16582 7.03859 -88.0329 10.2057 -10.5567 0.0015593 -0.00248883 -0.000788628 7.87605e-005 4.10553e-005 1.24965e-005 -3.97569e-016 -7.95139e-016 3.18055e-015 -1.98785e-016 -3.97569e-016 3.18055e-015 -1.98785e-016 0 3.18055e-015 -3.97569e-016 -7.95139e-016 3.18055e-015 0.0129473 0.00231697 -8.70038e-005 9.93923e-017 -7.95139e-016 1.59028e-015 -3.97569e-016 -7.95139e-016 3.18055e-015 0.0163314 0.00303369 -0.000872333 3.97569e-016 7.95139e-016 -3.18055e-015 -3.97569e-016 -7.95139e-016 3.18055e-015 0.0145763 0.00367772 -0.00326275 9.93923e-017 -3.97569e-016 -0 -3.97569e-016 -7.95139e-016 3.18055e-015 -1.98785e-016 -3.97569e-016 3.18055e-015 -1.98785e-016 0 3.18055e-015 3.42485 1.36937 -0.0640303 0.000136572 0.69354 0.00145564 -3.42573 -2.06297 -0.0607933 -3.19502e-024 0 -1.48106e-024 -3.42498 1.36123 0.0639712 -6.769e-005 0.712612 -0.0012277 3.42582 -2.07388 0.0612819 2.55305e-023 0 -2.31416e-026 
-2.40394 6.3756 25.2702 -8.60975 36.9655 -165.867 -0.357828 16.1197 -0.0185224 -0.75817 32.2393 0.0779125 -0.758167 32.2391 0.0779154 3.01477e-005 16.6375 6.39026e-006 -9.46358e-007 11.4347 -4.96479e-007 14.7144 2.95686 -35.5319 31.8219 -25.1987 13.6524 -6.9811 1.34107 -1.15799 -1.87819 -23.9771 11.9464 2.44663e-007 -3.48699e-007 2.73316e-006 -2.44663e-007 3.48699e-007 -2.73316e-006 2.44663e-007 -3.48699e-007 2.73316e-006 2.44663e-007 -3.48699e-007 2.73316e-006 -0.0128085 0.00232037 8.17485e-005 1.05816e-007 -8.6033e-007 -1.38699e-008 2.44663e-007 -3.48699e-007 2.73316e-006 -0.0160598 0.00299429 0.000854593 1.04682e-007 3.40702e-008 1.61133e-006 2.44663e-007 -3.48699e-007 2.73316e-006 -0.0126062 0.00312356 0.00282485 2.20695e-031 3.97569e-015 -3.18055e-015 2.44663e-007 -3.48699e-007 2.73316e-006 -2.44663e-007 3.48699e-007 -2.73316e-006 2.44663e-007 -3.48699e-007 2.73316e-006 -14.4454 4.1285 31.0951 -30.6317 -26.2272 -9.32728 6.5136 1.24343 1.32838 1.72423 -24.7097 -14.1569 -1.59028e-015 -7.95139e-016 -6.36111e-015 -7.95139e-016 -7.95139e-016 -3.18055e-015 -7.95139e-016 0 -0 -1.59028e-015 -7.95139e-016 -6.36111e-015 0.0129612 0.00231878 -8.67367e-005 -2.64834e-030 -2.38542e-014 -6.36111e-015 -1.59028e-015 -7.95139e-016 -6.36111e-015 0.0163321 0.00302663 -0.000874791 -4.41391e-032 7.95139e-016 3.18055e-015 -1.59028e-015 -7.95139e-016 -6.36111e-015 0.0145782 0.00367236 -0.00326107 7.95139e-016 7.95139e-016 -3.18055e-015 -1.59028e-015 -7.95139e-016 -6.36111e-015 -7.95139e-016 -7.95139e-016 -3.18055e-015 -7.95139e-016 0 -0 -52.536 -32.5462 -89.8896 -7.42871 44.6211 63.2472 -9.17701 31.6514 -40.4125 1.56119e-006 1.34852e-006 -5.68005e-007 52.5037 -32.5506 89.8577 7.38891 44.6177 -63.2161 9.16306 31.6491 40.399 -3.04052e-006 -2.68214e-007 -1.17549e-005 
-0.783911 10.2025 22.5903 -1.24734e-014 37.8714 -180 -0.343779 14.9421 0.00170048 -0.727381 29.884 0.105831 -0.727377 29.8839 0.105829 2.45103e-005 14.356 3.44152e-006 3.73218e-008 9.84481 -2.70559e-007 13.2393 4.07163 -33.9977 34.7745 -22.6334 13.529 -6.56967 1.26758 -1.08387 -3.34289 -20.8773 9.98445 7.95138e-016 -1.94863e-006 -6.36111e-015 1.23656e-006 8.40736e-007 -4.8749e-006 8.70822e-007 -2.01391e-006 4.61779e-006 7.95138e-016 -1.94863e-006 -6.36111e-015 -0.0127895 0.00231794 8.43158e-005 7.95139e-016 -4.77083e-015 -3.18055e-015 7.95138e-016 -1.94863e-006 -6.36111e-015 -0.0160855 0.00300604 0.000856937 4.49424e-007 -2.27692e-006 4.66922e-006 7.95138e-016 -1.94863e-006 -6.36111e-015 -0.0125932 0.00312817 0.00283353 7.95139e-016 -1.94872e-006 6.36111e-015 7.95138e-016 -1.94863e-006 -6.36111e-015 1.23656e-006 8.40736e-007 -4.8749e-006 8.70822e-007 -2.01391e-006 4.61779e-006 -13.1125 5.08811 29.4185 -33.8231 -23.9412 -9.42453 6.13047 1.17579 1.24297 3.25806 -21.5313 -11.8345 8.39923e-007 3.34892e-006 -6.50415e-008 6.97024e-006 1.88088e-006 9.51055e-007 -1.59028e-015 0 -0 8.39923e-007 3.34892e-006 -6.50415e-008 0.0129213 0.00231005 -7.53654e-005 9.28079e-007 -9.85526e-007 -4.54421e-006 8.39923e-007 3.34892e-006 -6.50415e-008 0.0162894 0.00302438 -0.000873881 7.02022e-006 1.80513e-006 8.79206e-006 8.39923e-007 3.34892e-006 -6.50415e-008 0.0145285 0.00365738 -0.00324748 7.51661e-007 7.0827e-006 4.41435e-006 8.39923e-007 3.34892e-006 -6.50415e-008 6.97024e-006 1.88088e-006 9.51055e-007 -1.59028e-015 0 -0 -47.7951 -33.8732 -85.1268 -4.74872 45.9559 58.3558 -11.3645 29.8257 -36.4066 -2.33683e-006 -1.59124e-007 8.65048e-007 47.7658 -33.8743 85.0959 4.71426 45.9513 -58.3285 11.3519 29.823 36.395 2.33671e-006 -4.21726e-007 -8.6507e-007 
-0.783926 10.473 21.9197 -1.29115e-014 40.0337 -180 -0.344151 14.7255 0.0021548 -0.727024 29.4507 0.105009 -0.72702 29.4506 0.105007 2.33853e-005 13.1185 3.00974e-006 -4.01633e-007 8.97622 3.33312e-007 12.7211 5.2628 -33.8191 34.7744 -22.6334 13.529 -6.56966 1.26756 -1.08388 -4.81607 -19.2415 8.78301 -7.95139e-016 -1.94912e-006 3.18055e-015 1.68618e-006 -5.04021e-006 -2.04849e-007 1.59028e-015 -1.59028e-015 -3.18055e-015 -7.95139e-016 -1.94912e-006 3.18055e-015 -0.0128325 0.0023221 8.99153e-005 1.59028e-015 1.59028e-015 -1.59028e-014 -7.95139e-016 -1.94912e-006 3.18055e-015 -0.0160331 0.00298576 0.000857387 7.95139e-016 -1.59028e-015 9.54166e-015 -7.95139e-016 -1.94912e-006 3.18055e-015 -0.0126318 0.00312387 0.00283852 7.95139e-016 -1.59028e-015 -0 -7.95139e-016 -1.94912e-006 3.18055e-015 1.68618e-006 -5.04021e-006 -2.04849e-007 1.59028e-015 -1.59028e-015 -3.18055e-015 -12.6937 6.17289 29.168 -33.8231 -23.9412 -9.42452 6.13045 1.17578 1.24297 4.78057 -19.8574 -10.4072 -5.56597e-015 0 -3.18055e-015 -5.56597e-015 -1.91317e-006 -0 -1.59028e-015 -1.59028e-015 -1.27222e-014 -5.56597e-015 0 -3.18055e-015 0.0129878 0.00232241 -8.8571e-005 3.18055e-015 -1.59028e-015 3.18055e-015 -5.56597e-015 0 -3.18055e-015 0.0163276 0.00303963 -0.000862901 -7.95139e-016 -1.59028e-015 -6.36111e-015 -5.56597e-015 0 -3.18055e-015 0.014591 0.00367797 -0.00326016 -2.38542e-015 0 -3.18055e-015 -5.56597e-015 0 -3.18055e-015 -5.56597e-015 -1.91317e-006 -0 -1.59028e-015 -1.59028e-015 -1.27222e-014 -47.688 -32.0689 -84.3313 -5.4405 47.1541 58.8119 -12.2615 29.2022 -35.5388 2.09102e-006 3.35133e-006 7.04111e-006 47.6618 -32.0701 84.3036 5.40835 47.1503 -58.7868 12.2498 29.1995 35.528 5.67559e-007 -4.16514e-006 2.27052e-006 
-0.783941 10.7489 21.2594 -1.33794e-014 42.2016 -180 -0.344538 14.5088 0.00259354 -0.726715 29.0174 0.104172 -0.726711 29.0173 0.104172 2.29932e-005 11.8749 2.85896e-006 -1.24467e-007 8.10552 1.19733e-007 12.1976 6.45342 -33.629 34.7744 -22.6334 13.529 -6.56963 1.26758 -1.08388 -6.24294 -17.5731 7.63434 3.18055e-015 -1.59028e-015 -0 1.37209e-006 -1.75886e-006 2.77768e-006 -1.59028e-015 4.77083e-015 -0 3.18055e-015 -1.59028e-015 -0 -0.0128324 0.00232617 9.33813e-005 -1.76556e-031 -1.59028e-015 -6.36111e-015 3.18055e-015 -1.59028e-015 -0 -0.0160358 0.00299452 0.000852923 -7.95139e-016 -1.59028e-015 6.36111e-015 3.18055e-015 -1.59028e-015 -0 -0.012653 0.00313458 0.00283687 -7.95139e-016 1.59028e-015 3.18055e-015 3.18055e-015 -1.59028e-015 -0 1.37209e-006 -1.75886e-006 2.77768e-006 -1.59028e-015 4.77083e-015 -0 -12.269 7.25665 28.9087 -33.8231 -23.9412 -9.42453 6.13048 1.17578 1.24297 6.24786 -18.1439 -9.03736 -7.00689e-007 1.09328e-006 4.72082e-006 -1.76556e-031 -1.59028e-015 -6.36111e-015 1.67951e-006 4.80763e-006 -1.26782e-007 -7.00689e-007 1.09328e-006 4.72082e-006 0.0129391 0.00231664 -8.25941e-005 1.67958e-006 4.80787e-006 -1.26714e-007 -7.00689e-007 1.09328e-006 4.72082e-006 0.0163023 0.00302821 -0.000867057 3.4067e-007 5.55207e-006 -3.00561e-006 -7.00689e-007 1.09328e-006 4.72082e-006 0.0145833 0.0036757 -0.00325921 8.39795e-007 3.36075e-006 -6.33449e-008 -7.00689e-007 1.09328e-006 4.72082e-006 -1.76556e-031 -1.59028e-015 -6.36111e-015 1.67951e-006 4.80763e-006 -1.26782e-007 -47.6118 -30.2603 -83.5526 -6.16175 48.3495 59.2998 -13.1435 28.5673 -34.687 -1.72245e-006 1.55669e-006 -4.50851e-006 47.5886 -30.2617 83.5279 6.1321 48.3464 -59.2769 13.1327 28.5649 34.677 7.79252e-007 1.19585e-006 -2.90036e-007 
-0.783954 11.0295 20.6096 -1.38817e-014 44.3737 -180 -0.344943 14.2921 0.00301438 -0.726458 28.584 0.103316 -0.726454 28.5839 0.103314 2.25108e-005 10.6252 2.46791e-006 1.07381e-010 7.23282 1.50868e-007 11.6683 7.64307 -33.4274 34.7744 -22.6334 13.529 -6.56963 1.26753 -1.08388 -7.62499 -15.8748 6.53708 -4.21698e-007 1.69629e-006 5.12037e-008 -8.43395e-007 3.39258e-006 1.02407e-007 -9.77683e-007 1.95214e-006 -7.54892e-006 -4.21698e-007 1.69629e-006 5.12037e-008 -0.0128675 0.00233777 8.14132e-005 -1.71716e-006 4.42041e-006 -4.51569e-006 -4.21698e-007 1.69629e-006 5.12037e-008 -0.01604 0.00300075 0.000856576 -1.32579e-006 1.34485e-006 -9.2873e-006 -4.21698e-007 1.69629e-006 5.12037e-008 -0.0126012 0.00312081 0.00282615 -1.29538e-006 3.71106e-006 -4.56684e-006 -4.21698e-007 1.69629e-006 5.12037e-008 -8.43395e-007 3.39258e-006 1.02407e-007 -9.77683e-007 1.95214e-006 -7.54892e-006 -11.8379 8.33905 28.6404 -33.8231 -23.9412 -9.42456 6.1305 1.17578 1.24299 7.66152 -16.3943 -7.72357 1.67952e-006 3.86546e-006 -1.25826e-007 -1.36481e-007 -1.43176e-006 -4.65802e-006 8.39759e-007 3.3583e-006 -6.29127e-008 1.67952e-006 3.86546e-006 -1.25826e-007 0.0129504 0.00232048 -8.7779e-005 1.67959e-006 3.06281e-006 -1.25758e-007 1.67952e-006 3.86546e-006 -1.25826e-007 0.0162903 0.00302224 -0.000874741 1.72337e-006 9.8956e-006 9.00788e-006 1.67952e-006 3.86546e-006 -1.25826e-007 0.0146461 0.00369367 -0.00327555 -6.26409e-006 5.83527e-006 -5.68884e-006 1.67952e-006 3.86546e-006 -1.25826e-007 -1.36481e-007 -1.43176e-006 -4.65802e-006 8.39759e-007 3.3583e-006 -6.29127e-008 -47.565 -28.4491 -82.7887 -6.91531 49.5417 59.8219 -14.0108 27.9216 -33.8512 -9.54166e-015 4.47248e-008 -0 47.5446 -28.4506 82.7669 6.88819 49.5395 -59.8015 14.0009 27.9192 33.842 1.55882e-006 2.21811e-006 -5.80736e-007 
